<?xml version="1.0" encoding="UTF-8" standalone="no"?>
<!-- Created with Inkscape (http://www.inkscape.org/) -->

<svg
   xmlns:dc="http://purl.org/dc/elements/1.1/"
   xmlns:cc="http://creativecommons.org/ns#"
   xmlns:rdf="http://www.w3.org/1999/02/22-rdf-syntax-ns#"
   xmlns:svg="http://www.w3.org/2000/svg"
   xmlns="http://www.w3.org/2000/svg"
   xmlns:sodipodi="http://sodipodi.sourceforge.net/DTD/sodipodi-0.dtd"
   xmlns:inkscape="http://www.inkscape.org/namespaces/inkscape"
   width="185.23305mm"
   height="182.85706mm"
   viewBox="0 0 185.23305 182.85706"
   version="1.1"
   id="svg1444"
   inkscape:version="0.92.3 (2405546, 2018-03-11)"
   sodipodi:docname="git.svg">
  <defs
     id="defs1438" />
  <sodipodi:namedview
     id="base"
     pagecolor="#ffffff"
     bordercolor="#666666"
     borderopacity="1.0"
     inkscape:pageopacity="0.0"
     inkscape:pageshadow="2"
     inkscape:zoom="2.8"
     inkscape:cx="319.4139"
     inkscape:cy="143.76655"
     inkscape:document-units="mm"
     inkscape:current-layer="layer1"
     showgrid="false"
     inkscape:window-width="2736"
     inkscape:window-height="1699"
     inkscape:window-x="-13"
     inkscape:window-y="-13"
     inkscape:window-maximized="1"
     fit-margin-top="0"
     fit-margin-left="0"
     fit-margin-right="0"
     fit-margin-bottom="0" />
  <metadata
     id="metadata1441">
    <rdf:RDF>
      <cc:Work
         rdf:about="">
        <dc:format>image/svg+xml</dc:format>
        <dc:type
           rdf:resource="http://purl.org/dc/dcmitype/StillImage" />
        <dc:title></dc:title>
      </cc:Work>
    </rdf:RDF>
  </metadata>
  <g
     inkscape:label="Layer 1"
     inkscape:groupmode="layer"
     id="layer1"
     transform="translate(-10.933902,-69.723647)">
    <path
       style="fill:#ffffff;fill-opacity:0.96829969;stroke:none;stroke-width:0.26458332px;stroke-linecap:butt;stroke-linejoin:miter;stroke-opacity:1"
       d="M 79.933907,252.5807 C 27.023398,237.69764 7.1037006,191.61126 11.531475,151.04167 c 3.981468,-36.4803 36.428307,-80.04886 92.169115,-81.3168 36.26584,-0.18741 75.85439,21.15589 90.51061,71.57542 10.84552,59.57258 -25.30194,100.22652 -61.88975,110.78905 -0.86317,-27.37014 4.09699,-65.19143 -12.32203,-71.89107 69.86393,-4.04889 61.47805,-50.12194 37.23066,-69.9256 0.39817,-8.5756 -3.59078,-13.79613 -3.59078,-13.79613 0,0 -6.75846,-1.21614 -14.55209,6.42559 -14.82893,-4.79934 -53.608775,-6.1821 -69.925625,3.40179 -4.829254,-9.5076 -15.68601,-9.07143 -15.68601,-9.07143 0,0 -5.679549,8.1284 -4.460118,15.38363 -27.38543,21.87258 -24.047635,72.94003 40.367855,67.96013 -20.939781,7.74809 -10.249265,20.19496 -28.678943,23.15104 -8.405418,0.82262 -9.24799,-0.62554 -15.399115,-8.96126 -2.376655,-3.22073 -7.3582,-4.18768 -12.429381,-2.66151 6.913815,2.19699 6.497122,0.51972 11.127658,12.10114 1.996564,4.99361 7.882706,7.88435 22.134247,6.04172 0,0 10.583334,-1.55987 16.630952,-12.09524 -4.406552,11.14803 -3.867118,37.34725 -2.834823,54.42856"
       id="path1997"
       inkscape:connector-curvature="0"
       sodipodi:nodetypes="csccccccccccccscsccc" />
  </g>
</svg>
